<svg xmlns="http://www.w3.org/2000/svg" width="1200" height="300" viewBox="0 0 1200 300" role="img" aria-labelledby="title desc">
  <title id="title">F2FS Guardian</title>
  <desc id="desc">Controlled F2FS maintenance for Android 13 through 16</desc>
  <defs>
    <linearGradient id="bg" x1="0" y1="0" x2="1" y2="1">
      <stop offset="0" stop-color="#0f172a"/>
      <stop offset="1" stop-color="#1e3a5f"/>
    </linearGradient>
    <linearGradient id="shield" x1="0" y1="0" x2="0" y2="1">
      <stop offset="0" stop-color="#38bdf8"/>
      <stop offset="1" stop-color="#0ea5e9"/>
    </linearGradient>
  </defs>
  <rect width="1200" height="300" rx="28" fill="url(#bg)"/>
  <g transform="translate(92 52)">
    <path d="M98 0 178 31v58c0 51-31 91-80 109C49 180 18 140 18 89V31Z" fill="url(#shield)"/>
    <path d="M98 35 143 52v35c0 30-17 54-45 68-28-14-45-38-45-68V52Z" fill="#0f172a" opacity=".9"/>
    <path d="M72 94h52M72 75h52M72 113h37" stroke="#e0f2fe" stroke-width="9" stroke-linecap="round"/>
  </g>
  <text x="320" y="126" fill="#f8fafc" font-family="Arial, sans-serif" font-size="64" font-weight="700">F2FS Guardian</text>
  <text x="323" y="178" fill="#bae6fd" font-family="Arial, sans-serif" font-size="28">Controlled maintenance · Android 13–16</text>
  <text x="323" y="220" fill="#94a3b8" font-family="Arial, sans-serif" font-size="21">Magisk · KernelSU · APatch · by Lolokeksu</text>
</svg>
